<svg xmlns="http://www.w3.org/2000/svg" version="1.1" xmlns:xlink="http://www.w3.org/1999/xlink" xmlns:svgjs="http://svgjs.com/svgjs" width="414" height="600" preserveAspectRatio="none" viewBox="0 0 414 600"><g mask="url(&quot;#SvgjsMask1572&quot;)" fill="none"><rect width="414" height="600" x="0" y="0" fill="rgba(20, 27, 31, 1)"></rect><path d="M 0,119 C 41.4,102.4 124.2,40.2 207,36 C 289.8,31.8 372.6,85.6 414,98L414 600L0 600z" fill="rgba(0, 170, 162, 1)"></path><path d="M 0,198 C 41.4,187 124.2,135.6 207,143 C 289.8,150.4 372.6,216.6 414,235L414 600L0 600z" fill="rgba(255, 255, 255, 1)"></path><path d="M 0,247 C 20.8,267.4 62.4,349.6 104,349 C 145.6,348.4 166.4,241.8 208,244 C 249.6,246.2 270.8,357.2 312,360 C 353.2,362.8 393.6,278.4 414,258L414 600L0 600z" fill="rgba(255, 255, 255, 1)"></path><path d="M 0,401 C 41.4,411.2 124.2,456.6 207,452 C 289.8,447.4 372.6,392.8 414,378L414 600L0 600z" fill="rgba(255, 255, 255, 1)"></path><path d="M 0,512 C 27.6,525.8 82.8,582.8 138,581 C 193.2,579.2 220.8,502.4 276,503 C 331.2,503.6 386.4,567.8 414,584L414 600L0 600z" fill="rgba(0, 170, 162, 1)"></path></g><defs><mask id="SvgjsMask1572"><rect width="414" height="600" fill="#ffffff"></rect></mask></defs></svg>